<mxfile host="app.diagrams.net" modified="2024-03-03T16:41:57.587Z" agent="Mozilla/5.0 (Windows NT 10.0; Win64; x64) AppleWebKit/537.36 (KHTML, like Gecko) Chrome/122.0.0.0 Safari/537.36" etag="GNnAZ8bUAdhhyi-NhCQ0" version="24.0.1" type="github">
  <diagram name="Strona-1" id="lcwn6AOx6iemLbHwWNfx">
    <mxGraphModel dx="1050" dy="522" grid="1" gridSize="10" guides="1" tooltips="1" connect="1" arrows="1" fold="1" page="1" pageScale="1" pageWidth="827" pageHeight="1169" background="none" math="0" shadow="0">
      <root>
        <mxCell id="0" />
        <mxCell id="1" parent="0" />
        <mxCell id="-R2G3Fy26ll-aLyJ9Nz2-2" value="&lt;h3&gt;Component&lt;/h3&gt;" style="rounded=1;whiteSpace=wrap;html=1;align=center;fillColor=#cce5ff;strokeColor=#36393d;" vertex="1" parent="1">
          <mxGeometry x="250" y="90" width="160" height="60" as="geometry" />
        </mxCell>
        <mxCell id="-R2G3Fy26ll-aLyJ9Nz2-5" value="&lt;h3&gt;Component&lt;/h3&gt;" style="rounded=1;whiteSpace=wrap;html=1;align=center;fillColor=#cce5ff;strokeColor=#36393d;" vertex="1" parent="1">
          <mxGeometry x="70" y="200" width="160" height="60" as="geometry" />
        </mxCell>
        <mxCell id="-R2G3Fy26ll-aLyJ9Nz2-6" value="&lt;h3&gt;Component&lt;/h3&gt;" style="rounded=1;whiteSpace=wrap;html=1;align=center;fillColor=#cce5ff;strokeColor=#36393d;" vertex="1" parent="1">
          <mxGeometry x="430" y="200" width="160" height="60" as="geometry" />
        </mxCell>
        <mxCell id="-R2G3Fy26ll-aLyJ9Nz2-7" value="&lt;h3&gt;Component&lt;/h3&gt;" style="rounded=1;whiteSpace=wrap;html=1;align=center;fillColor=#cce5ff;strokeColor=#36393d;" vertex="1" parent="1">
          <mxGeometry x="610" y="330" width="160" height="60" as="geometry" />
        </mxCell>
        <mxCell id="-R2G3Fy26ll-aLyJ9Nz2-8" value="&lt;h3&gt;Component&lt;/h3&gt;" style="rounded=1;whiteSpace=wrap;html=1;align=center;fillColor=#cce5ff;strokeColor=#36393d;" vertex="1" parent="1">
          <mxGeometry x="250" y="330" width="160" height="60" as="geometry" />
        </mxCell>
      </root>
    </mxGraphModel>
  </diagram>
</mxfile>
